# xmcd
#
# Track frame offsets:
#	187
#	14922
#	32100
#	48105
#	63382
#	80307
#	98325
#	112592
#	127662
#	142780
#
# Disc length: 2072 seconds
#
# Revision: 6
# Processed by: cddbd v1.5.1PL2 Copyright (c) Steve Scherf et al.
# Submitted via: dBpowerAMP V4.0
#
DISCID=6a08160a
DTITLE=Doug Supernaw - Red and Rio Grande
DYEAR=1993
DGENRE=Country
TTITLE0=Honky Tonkin' Fool
TTITLE1=I Don't Call Him Daddy
TTITLE2=Reno
TTITLE3=The Perfect Picture (To Fit My Frame Of Mind)
TTITLE4=Five Generations Of Rock County Wilsons
TTITLE5=Red And Rio Grande
TTITLE6=You're Gonna Bring Back Cheatin' Songs
TTITLE7=I Would Have Loved You All Night Long
TTITLE8=Daddy's Girl
TTITLE9=Carousel
EXTD=
EXTT0=
EXTT1=
EXTT2=
EXTT3=
EXTT4=
EXTT5=
EXTT6=
EXTT7=
EXTT8=
EXTT9=
PLAYORDER=
